<?xml version="1.0" encoding="UTF-8" standalone="no"?>
<svg
   xmlns:dc="http://purl.org/dc/elements/1.1/"
   xmlns:cc="http://creativecommons.org/ns#"
   xmlns:rdf="http://www.w3.org/1999/02/22-rdf-syntax-ns#"
   xmlns:svg="http://www.w3.org/2000/svg"
   xmlns="http://www.w3.org/2000/svg"
   viewBox="0 0 90.375 117.6"
   xml:space="preserve"
   version="1.1"
   id="svg3355"><metadata
     id="metadata3361"><rdf:RDF><cc:Work
         rdf:about=""><dc:format>image/svg+xml</dc:format><dc:type
           rdf:resource="http://purl.org/dc/dcmitype/StillImage" /><dc:title></dc:title></cc:Work></rdf:RDF></metadata><defs
     id="defs3359" /><g
     transform="matrix(1.25,0,0,-1.25,-162.525,264.3625)"
     id="g3363"><path
       id="path3365"
       style="fill:none;fill-opacity:1;fill-rule:nonzero;stroke:none"
       d="M 0,280 350,280 350,0 0,0 0,280" /><path
       id="path3367"
       style="fill:#F5E356;fill-opacity:1;fill-rule:nonzero;stroke:none"
       d="m 185.56,211.49 c 0.16,-9.73 0.17,-19.47 0.31,-29.21 5.48,-5.47 10.99,-10.91 16.45,-16.41 -6.81,-4.32 -13.93,-8.17 -20.64,-12.63 -3.67,-3.76 -5.46,-8.93 -8.57,-13.13 1.79,5.25 2.45,10.96 4.92,15.95 4.34,3.85 9.54,6.62 14.02,10.31 -6.01,-2.29 -11.96,-4.76 -17.88,-7.26 -1.54,-9.98 -3.39,-19.9 -5.15,-29.84 1.01,-1.66 2.04,-3.32 3.06,-4.98 -1.92,-2.28 -3.82,-4.56 -5.68,-6.88 -2.18,2.34 -4.27,4.74 -6.31,7.19 1.22,2.23 3.28,4.41 2.7,7.16 -1.11,9.28 -2.22,18.56 -3.37,27.83 -5.32,1.86 -10.48,4.18 -15.92,5.67 3.83,-3.7 8.56,-6.49 11.9,-10.67 1.71,-4.7 2.16,-9.75 3.46,-14.57 -3.65,4.66 -6.19,10.23 -10.43,14.4 -5.97,4.08 -12.33,7.56 -18.41,11.46 4.28,4.76 8.7,9.4 12.81,14.3 1.45,1.58 1.07,3.88 1.26,5.83 0.1,8.15 0.87,16.28 1,24.42 4.5,-9.42 8.62,-19.03 13.02,-28.5 4.92,0.21 9.84,0.49 14.76,0.65 4.36,9.58 8.35,19.32 12.69,28.91" /><path
       id="path3383"
       style="fill:#ffffff;fill-opacity:1;fill-rule:nonzero;stroke:none"
       d="m 116.12,97.55 c 3.79,-0.06 7.63,0.29 11.39,-0.28 3.49,-0.44 3.73,-6.24 0.41,-7.12 -3.9,-0.62 -7.87,-0.25 -11.8,-0.31 0,2.57 0,5.14 0,7.71" /></g></svg>
