<svg xmlns="http://www.w3.org/2000/svg" class="pure-img center-aligned" xml:space="preserve" version="1.1" viewBox="0 0 5028 5838" style="image-rendering:optimizeQuality;shape-rendering:geometricPrecision;text-rendering:geometricPrecision">
  <path class="fil0" d="M5000 1282c-22 3-61 52-113 92-52 40-117 69-167 93-51 23-88 41-121 68-34 28-64 67-119 99-55 32-136 57-245 72-110 15-248 20-372 45-125 26-235 73-324 136-89 63-155 142-229 235-74 93-155 200-219 267-65 68-113 95-171 121-57 26-124 49-176 66-52 17-88 28-83 69 6 40 54 111 119 158 64 47 145 70 261 82 117 12 269 12 421-9 152-22 304-65 396-87 134-32 153-2 255 91 174 159 326 322 326 534 0 282-151 564-393 846-200 257-687 667-974 871-186 144-381 287-575 430-337-248-674-497-970-745-239-199-505-439-710-722-164-227-261-453-261-680 0-246 313-698 613-625 93 22 245 65 397 87 152 21 304 21 420 9 116-12 197-35 262-82 64-47 112-118 118-158 6-41-31-52-83-69-52-17-118-40-176-66-58-26-106-53-170-121-65-67-146-174-219-267-42-53-82-101-124-144 80-6 186-10 283-27 112-19 212-55 287-108 76-52 127-120 133-205 6-85-34-186-51-219-17-33-12 2-19 49-7 47-26 106-67 159-41 52-103 98-176 128-181 74-151 49-123-63 13-53 24-113 38-167 25-97 59-178 107-244 48-67 111-119 176-149 65-30 132-37 183-34 51 3 87 16 56-8-31-24-128-85-219-97-91-12-175 25-247 89-73 64-134 156-180 264-47 107-78 231-104 311-101 300-478 127-641-30-40-37-59-72-68-109-9-37-8-75 7-133 14-58 42-136 94-180 52-44 128-55 234-70 106-14 241-33 326-66 86-33 121-80 137-130 16-50 11-104 4-108-8-3-18 44-47 80-29 35-78 60-151 72-73 12-170 11-230 8-60-3-82-9-57-45 26-36 100-103 132-176 32-74 22-155-41-232-64-77-181-150-225-172-44-22-14 7 19 46 33 40 69 89 86 145 17 57 15 122-28 181-43 60-128 114-195 174-66 60-114 127-139 213-24 87-26 194-58 231-33 38-97 5-144-62-47-67-76-169-101-294-26-125-72-274-65-383 8-108 38-175 94-238 57-63 164-122 154-136-10-14-106 16-176 50-150 73-192 187-201 338-4 82 4 172 31 267 27 95 73 195 66 211-7 17-66-49-114-132-101-174-179-324-120-527 26-89 104-192 185-274 82-82 191-149 204-169 12-20-73 7-151 37-299 112-447 361-393 656 29 159 128 362 293 553 153 176 362 342 549 469-53-5-103-9-148-16-110-15-190-40-246-72-55-32-85-71-118-99-34-27-70-45-121-68-51-24-115-53-167-93-52-40-91-89-113-92-22-3-27 40-28 82-1 43 1 86 11 137 9 51 25 111 89 157 65 46 178 78 262 126 245 140 128 222 31 365-51 75-113 184-169 331-57 148-107 334-122 560-80 1206 938 1913 1944 2499 32 19 461 303 477 299 40-11 617-413 706-466 938-560 1770-1221 1697-2332-15-226-66-412-122-560-57-147-119-256-170-331-20-30-38-55-55-74-7-13-15-24-22-34-85-120-20-183 109-257 84-48 197-80 261-126 65-46 81-106 90-157 9-51 11-94 10-137-1-42-6-85-27-82z"/>
</svg>
