<?xml version="1.0" standalone="no"?>
<!DOCTYPE svg PUBLIC "-//W3C//DTD SVG 20010904//EN"
 "http://www.w3.org/TR/2001/REC-SVG-20010904/DTD/svg10.dtd">
<svg version="1.0" xmlns="http://www.w3.org/2000/svg"
 width="87.000000pt" height="123.000000pt" viewBox="0 0 87.000000 123.000000"
 preserveAspectRatio="xMidYMid meet">
<metadata>
Created by potrace 1.11, written by Peter Selinger 2001-2013
</metadata>
<g transform="translate(0.000000,123.000000) scale(0.100000,-0.100000)"
fill="#000000" stroke="none">
<path d="M635 1088 c-32 -73 -62 -137 -67 -143 -4 -5 -39 -10 -77 -12 l-69 -2
-63 139 c-35 76 -65 137 -67 135 -4 -3 -10 -135 -11 -222 -1 -49 -5 -57 -63
-125 -34 -40 -67 -77 -73 -81 -6 -6 -7 -10 0 -13 6 -2 52 -31 102 -64 73 -47
100 -71 128 -114 37 -58 64 -85 51 -50 -4 10 -12 41 -18 69 -8 41 -20 59 -62
99 -28 27 -44 47 -36 44 8 -3 38 -13 67 -22 57 -19 59 -22 68 -111 3 -33 8
-71 10 -85 15 -105 15 -123 0 -147 -15 -22 -15 -27 -2 -41 8 -10 22 -27 32
-38 l18 -22 30 35 c29 33 30 36 15 61 -14 24 -14 36 -2 102 7 41 18 106 24
144 6 39 13 72 15 74 6 6 144 62 152 62 4 0 -20 -19 -53 -41 -32 -23 -62 -47
-67 -53 -6 -10 -27 -76 -31 -101 -1 -5 -5 -16 -9 -22 -5 -7 -4 -13 1 -13 5 0
20 21 35 48 24 44 74 92 95 92 5 0 15 6 21 13 6 8 30 24 53 36 92 48 92 41 -1
135 l-82 83 -1 141 c-1 78 -2 142 -3 142 -2 0 -29 -60 -60 -132z"/>
<path d="M2 47 l3 -42 60 3 c70 4 75 6 75 37 0 32 -13 38 -82 41 l-59 3 3 -42z"/>
</g>
</svg>
