<?xml version="1.0" standalone="no"?>
<!DOCTYPE svg PUBLIC "-//W3C//DTD SVG 20010904//EN"
 "http://www.w3.org/TR/2001/REC-SVG-20010904/DTD/svg10.dtd">
<svg version="1.0" xmlns="http://www.w3.org/2000/svg"
 width="87.000000pt" height="123.000000pt" viewBox="0 0 87.000000 123.000000"
 preserveAspectRatio="xMidYMid meet">
<metadata>
Created by potrace 1.11, written by Peter Selinger 2001-2013
</metadata>
<g transform="translate(0.000000,123.000000) scale(0.100000,-0.100000)"
fill="#000000" stroke="none">
<path d="M636 1090 c-33 -74 -62 -138 -65 -142 -4 -4 -38 -10 -77 -14 l-70 -7
-65 143 -64 142 -7 -54 c-3 -29 -6 -92 -7 -140 -1 -96 -2 -97 -100 -202 -25
-27 -41 -50 -35 -52 5 -3 51 -31 101 -63 72 -47 99 -71 132 -120 23 -34 43
-61 45 -61 2 0 -3 30 -11 68 -13 60 -20 72 -66 116 -29 26 -45 46 -37 44 103
-32 120 -41 124 -61 3 -12 12 -80 20 -152 14 -115 14 -132 0 -152 -14 -22 -13
-26 17 -62 l31 -39 31 35 c29 33 30 36 15 61 -15 25 -14 38 11 176 22 126 29
150 46 156 11 4 44 17 73 29 63 25 61 17 -7 -29 -28 -19 -54 -42 -57 -50 -10
-24 -42 -140 -38 -140 1 0 19 26 38 59 31 51 48 66 138 121 57 34 105 64 107
66 3 3 -32 42 -77 87 l-81 82 -3 145 -3 145 -59 -135z"/>
</g>
</svg>
